<?xml version="1.0" encoding="utf-8"?>
<!-- Generator: Adobe Illustrator 25.0.1, SVG Export Plug-In . SVG Version: 6.00 Build 0)  -->
<svg version="1.1" id="Layer_1" xmlns="http://www.w3.org/2000/svg" xmlns:xlink="http://www.w3.org/1999/xlink" x="0px" y="0px"
	 viewBox="0 0 1500 1500" style="enable-background:new 0 0 1500 1500;" xml:space="preserve">
<style type="text/css">
	.st0{fill:#FFFFFF;}
</style>
<g>
	<g>
		<path d="M572.72,1086.72c0,42.65-25.37,80.49-65.84,80.49h-64.3v-2.62c5.69-0.44,12.69-5.47,12.69-17.93v-116.14
			c0-14-6.12-17.5-12.69-17.93v-2.84h54.24C538.38,1009.73,572.72,1045.38,572.72,1086.72z M550.41,1099.84
			c0-36.09-5.91-75.46-44.18-84.64c-7.22-1.75-18.59-2.19-29.97-2.19v146.98c8.53,2.19,20.78,3.94,30.18,3.94
			C534.88,1163.93,550.41,1139.65,550.41,1099.84z"/>
		<path d="M701.11,1124.56l-13.56,46.81c-5.03-2.41-10.06-4.16-27.78-4.16h-77.65v-2.84c6.78-0.44,12.69-5.25,12.69-16.62v-118.33
			c0-11.81-6.12-16.4-12.69-17.06v-2.62h73.05c19.03,0,26.47-3.5,29.31-5.25l12.9,42.43h-3.28c-8.97-21.87-17.72-33.9-57.74-33.9
			h-20.56v62.12h24.72c17.72,0,23.84-5.9,24.5-18.15h2.84v39.81h-2.84c-1.09-12.9-6.78-18.37-24.5-18.37h-24.72v80.93
			c6.56,2.84,15.09,4.59,27.12,4.59c29.09,0,44.62-9.62,54.9-39.37H701.11z"/>
		<path d="M823.16,1120.18l-12.69,51.18c-5.9-2.62-12.9-4.16-25.81-4.16h-76.99v-2.84c5.69-0.44,12.69-4.16,12.69-17.72v-116.14
			c0-14-6.12-17.72-12.69-18.15v-2.62h46.15v2.62c-7,0.44-12.47,4.16-12.47,18.15v129.05c6.34,2.62,14.87,4.38,26.47,4.38
			c27.34,0,41.99-6.34,52.06-43.74H823.16z"/>
		<path d="M934.28,1053.69h-3.06c-6.12-23.84-13.12-41.12-43.96-41.12h-8.75v134.08c0,13.12,7,17.28,12.47,17.72v2.84h-46.15v-2.62
			c5.69-0.44,12.47-4.81,12.47-17.93v-134.08h-8.97c-30.84,0-38.28,17.28-43.75,41.12h-3.28l9.62-49.21
			c5.25,2.41,12.25,5.25,27.12,5.25h59.49c14,0,22.53-2.84,27.12-5.25L934.28,1053.69z"/>
		<path d="M1057.42,1164.36v2.84h-51.62v-2.84c5.25-1.09,10.5-2.84,11.16-10.72c0.88-5.03-1.09-12.25-4.16-21.65l-6.56-19.68h-53.37
			c-6.12,18.37-10.5,32.59-10.06,38.93c0.66,10.5,8.75,12.9,14.44,13.12v2.84H914.6v-2.84c8.75-0.22,16.19-3.72,21.65-17.72
			c5.47-14.87,14.66-40.03,19.25-53.8c14.22-43.53,20.34-59.93,20.34-69.77c0-3.5-0.22-6.78-1.09-10.06
			c5.9-1.53,12.69-5.03,18.15-8.53l39.81,122.7C1039.27,1147.52,1042.55,1162.18,1057.42,1164.36z M1005.15,1109.03l-26.25-79.83
			c-2.62,13.78-11.37,38.93-19.68,64.08c-1.75,5.47-3.5,10.72-5.25,15.75H1005.15z"/>
	</g>
	<g>
		<polygon points="845.62,680.07 750.24,514.43 654.61,680.07 		"/>
		<path d="M443.87,320.64v612.27h612.27V320.64H443.87z M819.29,846.76l90.83-54.67l-63.47-110.23
			c-72.88,36.31-96.33,164.9-96.33,164.9S724.97,719.05,653.5,682l-63.58,110.12l90.79,54.65l-191.66,0L750,394.78l260.95,451.98
			L819.29,846.76z"/>
	</g>
</g>
</svg>
