<svg width="40" height="33" viewBox="0 0 40 33" fill="none" xmlns="http://www.w3.org/2000/svg">
<path d="M37.7931 14.0599C36.2406 8.72589 34.4898 5.96981 34.4616 5.92037C34.3618 5.79856 31.8877 2.83785 25.9248 0.647949L25.1368 2.79321C27.9736 3.83506 29.9862 5.10607 31.093 5.9273C27.7886 4.94053 23.8575 4.33618 20.3759 4.33618C16.8943 4.33618 12.9633 4.94053 9.65882 5.9273C10.7656 5.10615 12.7781 3.83506 15.6149 2.79321L14.8269 0.647949C8.86417 2.83785 6.39012 5.79856 6.29032 5.92037C6.26206 5.96981 4.51118 8.72589 2.95877 14.0599C1.46257 19.2003 0.89418 26.4519 0.873535 26.7427C1.00685 26.9512 4.07314 32.1863 12.4297 32.1863L14.5478 29.1191C12.1748 28.489 9.91197 27.4729 7.8406 26.0941L9.10696 24.1917C12.4486 26.4159 16.3454 27.5917 20.3759 27.5917C24.4064 27.5917 28.3032 26.4159 31.6448 24.1917L32.9112 26.0941C30.8399 27.4729 28.577 28.489 26.204 29.1191L28.3221 32.1863C36.6787 32.1863 39.745 26.9512 39.8783 26.7427C39.8576 26.4519 39.2892 19.2003 37.7931 14.0599ZM15.0921 20.0388H12.8067V16.2297H15.0921V20.0388ZM27.9451 20.0388H25.6597V16.2297H27.9451V20.0388Z" fill="white"/>
</svg>
