<svg width="26" height="28" viewBox="0 0 26 28" fill="none" xmlns="http://www.w3.org/2000/svg">
<path d="M8.62965 27.2665L19.0187 27.2642C18.5101 27.2426 18.2187 26.8738 18.2191 26.2062C18.2198 24.8278 18.2149 23.4493 18.2334 22.0713C18.2511 20.7354 18.0942 19.4599 17.0937 18.4147C17.8572 18.2648 18.5823 18.156 19.29 17.9772C21.3855 17.4472 23.1558 16.4198 24.1103 14.3923C25.152 12.1804 25.4309 9.84983 24.6656 7.49634C24.4146 6.72421 23.8607 6.05244 23.4639 5.32451C23.3841 5.17811 23.3203 4.9665 23.3632 4.81799C23.7652 3.42701 23.6588 2.06496 23.1543 0.728379C23.1052 0.598674 22.8782 0.458544 22.7315 0.455753C21.8931 0.440772 21.1143 0.712714 20.3749 1.0742C19.7393 1.38522 19.1387 1.76659 18.5112 2.09464C18.3582 2.17479 18.1444 2.22987 17.9844 2.19119C15.2279 1.52256 12.4763 1.51977 9.71947 2.18874C9.54897 2.23021 9.31263 2.17097 9.15747 2.07579C8.00322 1.36808 6.83149 0.708898 5.47019 0.483665C5.429 0.476659 5.38861 0.466235 5.34709 0.460652C4.66797 0.367916 4.61118 0.401069 4.4072 1.06657C4.01848 2.33377 3.95855 3.60451 4.35074 4.88601C4.38595 5.00067 4.34305 5.18928 4.26393 5.28133C2.69796 7.10358 2.42431 9.2381 2.73003 11.5184C2.92524 12.9743 3.3499 14.3422 4.27857 15.5107C5.41681 16.9432 6.97333 17.6645 8.70598 18.0654C9.30768 18.2049 9.92123 18.2952 10.5836 18.4179C9.98782 19.0502 9.69218 19.7715 9.53394 20.5626C9.51332 20.6643 9.37421 20.7759 9.26479 20.8219C7.30212 21.6471 5.55762 21.1001 4.42428 19.3131C3.85112 18.4099 3.10234 17.7307 2.01953 17.5275C1.74383 17.4759 1.43839 17.5156 1.15881 17.5725C0.881688 17.6287 0.848877 17.8389 1.02427 18.0435C1.15847 18.2003 1.31182 18.3548 1.48721 18.4598C2.42642 19.0211 3.02948 19.8622 3.42971 20.8457C4.10535 22.5058 5.4081 23.2292 7.10343 23.3268C7.87209 23.3711 8.64953 23.2682 9.46387 23.2302C9.46387 24.3165 9.49315 25.4425 9.45168 26.5661C9.43562 26.9984 9.08598 27.2539 8.62965 27.2591V27.2665Z" fill="white"/>
</svg>
