<svg width="145" height="29" viewBox="0 0 145 29" fill="none" xmlns="http://www.w3.org/2000/svg">
<g clip-path="url(#clip0)">
<path d="M61.3872 14.3118C61.3872 21.7284 57.0167 28.3048 50.0298 28.3048H38.9313V27.8412C39.9089 27.7543 41.1165 26.8852 41.1165 24.7124V4.51957C41.1165 2.08601 40.0526 1.47761 38.9313 1.3907V0.898193H48.3047C55.4641 0.898193 61.3872 7.09799 61.3872 14.3118ZM57.5343 16.5715C57.5343 10.2848 56.528 3.44764 49.9148 1.85424C48.6785 1.56453 46.6945 1.47761 44.7393 1.47761V27.0301C46.2057 27.4067 48.3334 27.7254 49.9436 27.7254C54.8603 27.7254 57.5343 23.4956 57.5343 16.5715Z" fill="white"/>
<path d="M83.527 20.8881L81.198 29.029C80.3355 28.6234 79.4729 28.3047 76.3963 28.3047H62.9976V27.8122C64.1764 27.7253 65.1828 26.8851 65.1828 24.9151V4.34565C65.1828 2.28871 64.1189 1.50649 62.9976 1.39061V0.898102H75.62C78.8978 0.898102 80.1917 0.28971 80.6805 0L82.8944 7.38761H82.3194C80.7667 3.59241 79.2716 1.50649 72.3422 1.50649H68.8056V12.3127H73.061C76.1088 12.3127 77.1727 11.2987 77.2877 9.15485H77.7765V16.0789H77.2877C77.0864 13.8482 76.1088 12.8921 73.061 12.8921H68.8056V26.972C69.927 27.4645 71.4221 27.7832 73.4923 27.7832C78.524 27.7832 81.198 26.1029 82.952 20.9461H83.527V20.8881Z" fill="white"/>
<path d="M104.603 20.106L102.417 29.0001C101.411 28.5365 100.203 28.2758 97.9606 28.2758H84.6769V27.7833C85.6545 27.6964 86.8621 27.059 86.8621 24.7124V4.51957C86.8621 2.08601 85.7982 1.44864 84.6769 1.36173V0.898193H92.6414V1.36173C91.4338 1.44864 90.4849 2.08601 90.4849 4.51957V26.9431C91.5775 27.4067 93.0439 27.6964 95.0566 27.6964C99.7721 27.6964 102.302 26.5955 104.027 20.077H104.603V20.106Z" fill="white"/>
<path d="M123.752 8.54645H123.234C122.17 4.4036 120.963 1.39061 115.644 1.39061H114.148V24.7123C114.148 27.001 115.356 27.7253 116.305 27.7832V28.2757H108.34V27.8122C109.318 27.7253 110.497 26.972 110.497 24.6833V1.41958H108.944C103.625 1.41958 102.331 4.43257 101.382 8.57542H100.807L102.475 0C103.395 0.405594 104.602 0.898102 107.161 0.898102H117.426C119.841 0.898102 121.308 0.405594 122.113 0L123.752 8.54645Z" fill="white"/>
<path d="M145 27.7833V28.2758H136.087V27.7833C137.007 27.5805 137.898 27.2908 138.013 25.9291C138.157 25.06 137.812 23.7853 137.294 22.1629L136.173 18.7443H126.972C125.908 21.9311 125.161 24.4227 125.247 25.5236C125.362 27.3487 126.771 27.7543 127.749 27.8123V28.3048H120.388V27.8123C121.883 27.7833 123.177 27.1749 124.126 24.7413C125.075 22.1629 126.656 17.7883 127.461 15.3837C129.905 7.82226 130.969 4.95413 130.969 3.24484C130.969 2.63644 130.94 2.05702 130.768 1.50657C131.774 1.24584 132.953 0.637444 133.902 0.0290527L140.773 21.3517C141.866 24.8572 142.441 27.4067 145 27.7833ZM136.001 18.1649L131.458 4.28779C130.998 6.69239 129.502 11.067 128.065 15.4416C127.777 16.3977 127.461 17.2958 127.145 18.1939H136.001V18.1649Z" fill="white"/>
<path d="M20.0406 28.3048H31.6855L15.8428 0.637451L0 28.3048H11.6449L6.12433 24.9441L9.97719 18.2229C14.3189 20.4826 15.8428 28.3048 15.8428 28.3048C15.8428 28.3048 17.2516 20.4536 21.6796 18.2229L25.5324 24.9731L20.0406 28.3048ZM10.0635 18.107L15.8715 7.96712L21.6508 18.107H10.0635Z" fill="white"/>
</g>
<defs>
<clipPath id="clip0">
<rect width="145" height="29" fill="white"/>
</clipPath>
</defs>
</svg>
