<svg width="27" height="22" viewBox="0 0 27 22" fill="none" xmlns="http://www.w3.org/2000/svg">
<path d="M24.8456 2.58558L27 0.464316V0H19.5367L14.2177 13.6261L8.16638 0H0.340875V0.464316L2.8575 3.58253C3.10275 3.81295 3.231 4.14989 3.19837 4.48916V16.7432C3.276 17.1843 3.1365 17.6382 2.835 17.9589L0 21.4952V21.9537H8.03813V21.4894L5.20312 17.9589C4.896 17.6371 4.75087 17.1913 4.81275 16.7432V6.14379L11.8688 21.9595H12.6889L18.756 6.14379V18.7428C18.756 19.0752 18.756 19.1435 18.5445 19.3612L16.362 21.5345V22H26.9505V21.5357L24.8468 19.4156C24.6623 19.272 24.5666 19.0312 24.606 18.7973V3.20389C24.5666 2.96884 24.6611 2.728 24.8456 2.58558Z" fill="white"/>
</svg>
