<svg width="19" height="16" viewBox="0 0 19 16" fill="none" xmlns="http://www.w3.org/2000/svg">
<path d="M17.484 1.88042L19 0.337684V0H13.7481L10.0051 9.90989L5.74671 0H0.239875V0.337684L2.01083 2.60547C2.18342 2.77305 2.27367 3.01811 2.25071 3.26484V12.1768C2.30533 12.4977 2.20717 12.8278 1.995 13.0611L0 15.6328V15.9663H5.65646V15.6286L3.66146 13.0611C3.44533 12.8269 3.34321 12.5027 3.38675 12.1768V4.46821L8.35208 15.9705H8.92921L13.1987 4.46821V13.6312C13.1987 13.8728 13.1987 13.9225 13.0498 14.0808L11.514 15.6615V16H18.9652V15.6623L17.4848 14.1204C17.3549 14.016 17.2876 13.8408 17.3153 13.6707V2.33011C17.2876 2.15916 17.3541 1.984 17.484 1.88042Z" fill="white"/>
</svg>
