<?xml version="1.0" standalone="no"?>
<!DOCTYPE svg PUBLIC "-//W3C//DTD SVG 20010904//EN"
 "http://www.w3.org/TR/2001/REC-SVG-20010904/DTD/svg10.dtd">
<svg version="1.0" xmlns="http://www.w3.org/2000/svg"
 width="858.000000pt" height="858.000000pt" viewBox="0 0 858.000000 858.000000"
 preserveAspectRatio="xMidYMid meet">
<metadata>
Created by potrace 1.11, written by Peter Selinger 2001-2013
</metadata>
<g transform="translate(0.000000,858.000000) scale(0.100000,-0.100000)"
fill="#000000" stroke="none">
<path d="M0 4290 l0 -4290 4290 0 4290 0 0 4290 0 4290 -4290 0 -4290 0 0
-4290z m4324 3187 c26 -45 153 -266 521 -902 51 -88 144 -250 208 -360 63
-110 258 -447 433 -750 174 -302 351 -608 392 -680 41 -71 166 -287 277 -480
111 -192 313 -541 448 -775 135 -234 361 -625 502 -870 141 -245 293 -508 338
-585 82 -142 119 -207 361 -625 l136 -235 -665 -3 c-366 -1 -965 -1 -1332 0
l-666 3 614 369 c338 203 620 375 628 382 12 11 -2 41 -89 191 -57 98 -171
295 -253 438 -82 143 -202 350 -265 460 -63 110 -148 258 -189 330 -41 71 -75
131 -77 132 -7 7 -142 -75 -223 -136 -465 -345 -859 -1065 -1088 -1985 l-42
-169 -31 125 c-229 916 -639 1667 -1104 2025 -70 54 -198 133 -214 133 -7 0
-26 -24 -42 -52 -44 -78 -228 -398 -402 -698 -84 -146 -176 -305 -205 -355
-28 -49 -96 -166 -149 -259 -81 -139 -96 -171 -84 -181 7 -7 289 -178 627
-381 l614 -369 -667 -3 c-366 -1 -965 -1 -1331 0 l-664 3 225 390 c224 387
326 564 609 1055 485 841 592 1026 892 1545 105 182 290 501 410 710 603 1044
941 1630 993 1720 32 55 124 215 205 355 81 140 171 296 200 345 28 50 65 114
81 142 16 29 31 53 34 53 3 0 18 -24 34 -53z"/>
<path d="M4277 5839 c-8 -13 -135 -233 -282 -489 -441 -764 -474 -823 -655
-1135 -95 -165 -221 -383 -280 -485 l-107 -185 669 -3 c367 -1 969 -1 1338 0
l670 3 -83 145 c-114 197 -380 659 -634 1100 -363 630 -444 771 -526 915 -44
77 -83 144 -87 149 -5 4 -15 -2 -23 -15z"/>
</g>
</svg>
