<svg width="33" height="27" viewBox="0 0 33 27" fill="none" xmlns="http://www.w3.org/2000/svg">
<path d="M32.7271 3.29233C31.5178 3.82282 30.2292 4.17444 28.8857 4.34517C30.2678 3.51997 31.3227 2.22323 31.8186 0.660238C30.53 1.42852 29.1072 1.9712 27.591 2.27405C26.3674 0.971211 24.6235 0.164307 22.7211 0.164307C19.0301 0.164307 16.0585 3.16022 16.0585 6.83296C16.0585 7.36141 16.1033 7.86953 16.213 8.35327C10.6704 8.08295 5.76593 5.42646 2.47124 1.37974C1.89604 2.3777 1.55865 3.51997 1.55865 4.74964C1.55865 7.05856 2.74766 9.1053 4.52001 10.2902C3.44888 10.2699 2.39807 9.95895 1.50783 9.46912C1.50783 9.48944 1.50783 9.51586 1.50783 9.54229C1.50783 12.7821 3.81879 15.4731 6.84926 16.0931C6.30658 16.2414 5.71512 16.3126 5.1013 16.3126C4.67448 16.3126 4.24359 16.2882 3.83912 16.1987C4.70293 18.839 7.15413 20.78 10.0687 20.843C7.80047 22.6174 4.92041 23.6865 1.80255 23.6865C1.2558 23.6865 0.731418 23.6621 0.207031 23.595C3.16026 25.4995 6.66024 26.5869 10.4346 26.5869C22.7028 26.5869 29.4101 16.4243 29.4101 7.61547C29.4101 7.32076 29.3999 7.03621 29.3857 6.75369C30.7088 5.81467 31.8206 4.64192 32.7271 3.29233Z" fill="white"/>
</svg>
