<svg width="21" height="25" viewBox="0 0 21 25" fill="none" xmlns="http://www.w3.org/2000/svg">
<path d="M20.6368 12.5947C20.3797 11.4778 19.4661 10.654 18.3665 10.5313C15.7632 10.2405 13.1269 10.2391 10.5036 10.2405C7.87912 10.2391 5.24342 10.2405 2.63927 10.5313C1.54021 10.6542 0.627169 11.4781 0.370375 12.5947C0.00438961 14.1851 0 15.9212 0 17.5589C0 19.1965 3.27053e-08 20.9323 0.365986 22.5227C0.622779 23.6393 1.53582 24.4632 2.63543 24.5861C5.23903 24.8772 7.87473 24.8783 10.4989 24.8772C13.1234 24.8786 15.7585 24.8772 18.3629 24.5861C19.462 24.4632 20.3756 23.6393 20.6324 22.5227C20.9981 20.9323 21 19.1965 21 17.5589C20.9997 15.921 21.0025 14.1851 20.6368 12.5947ZM5.98993 13.8274H4.47002V21.9038H3.0582V13.8274H1.566V12.5045H5.98993V13.8274ZM9.82454 21.904H8.55457V21.14C8.05004 21.7183 7.57102 22.0003 7.10435 22.0003C6.69529 22.0003 6.4138 21.8346 6.28678 21.4799C6.21764 21.2681 6.17484 20.9328 6.17484 20.4385V14.9004H7.44372V20.0568C7.44372 20.3542 7.44372 20.5087 7.45524 20.5504C7.4857 20.7474 7.58199 20.8472 7.75209 20.8472C8.00669 20.8472 8.27281 20.6511 8.5543 20.253V14.9004H9.82427L9.82454 21.904ZM14.6457 19.802C14.6457 20.4497 14.6021 20.9164 14.5173 21.2132C14.3478 21.7342 14.0084 22.0003 13.5036 22.0003C13.052 22.0003 12.6164 21.7496 12.1919 21.2256V21.9043H10.9231V12.5045H12.1919V15.5742C12.6018 15.0697 13.0369 14.8145 13.5036 14.8145C14.0084 14.8145 14.3481 15.0804 14.5173 15.6046C14.6027 15.8864 14.6457 16.3495 14.6457 17.0126V19.802ZM19.4351 18.6335H16.8971V19.8749C16.8971 20.5232 17.1091 20.847 17.5454 20.847C17.8578 20.847 18.0397 20.6771 18.1122 20.338C18.124 20.2692 18.1407 19.9871 18.1407 19.4782H19.4354V19.6634C19.4354 20.0725 19.4197 20.3542 19.4082 20.481C19.3657 20.7619 19.2658 21.0168 19.1119 21.2412C18.7605 21.7499 18.2397 22.0006 17.5769 22.0006C16.913 22.0006 16.4076 21.7617 16.0408 21.2835C15.7717 20.9328 15.6334 20.3808 15.6334 19.6365V17.1835C15.6334 16.4348 15.756 15.8872 16.0257 15.5333C16.3923 15.054 16.8973 14.8153 17.5456 14.8153C18.1824 14.8153 18.6872 15.054 19.0428 15.5333C19.3086 15.8872 19.4356 16.4348 19.4356 17.1835V18.6335H19.4351Z" fill="white"/>
<path d="M17.5341 15.9571C17.11 15.9571 16.8973 16.2811 16.8973 16.9286V17.5766H18.1662V16.9286C18.1659 16.2811 17.9539 15.9571 17.5341 15.9571Z" fill="white"/>
<path d="M12.8246 15.9571C12.6155 15.9571 12.4037 16.0559 12.1917 16.2657V20.5344C12.4034 20.7467 12.6155 20.8471 12.8246 20.8471C13.1906 20.8471 13.3766 20.5344 13.3766 19.902V16.9127C13.3766 16.2811 13.1906 15.9571 12.8246 15.9571Z" fill="white"/>
<path d="M13.5338 9.59493C14.0016 9.59493 14.4883 9.3107 14.9988 8.72578V9.49781H16.2814V2.4198H14.9988V7.82947C14.7146 8.23113 14.4452 8.42976 14.1887 8.42976C14.0169 8.42976 13.916 8.32825 13.888 8.12934C13.8724 8.08737 13.8724 7.93126 13.8724 7.63084V2.4198H12.5939V8.01658C12.5939 8.51645 12.6367 8.85473 12.7075 9.069C12.8364 9.42758 13.1209 9.59493 13.5338 9.59493Z" fill="white"/>
<path d="M4.60452 5.6511V9.49779H6.02676V5.6511L7.73762 0H6.29947L5.32908 3.72982L4.31947 0H2.82288C3.12274 0.880396 3.43468 1.76518 3.73455 2.6464C4.1908 3.97097 4.47557 4.96961 4.60452 5.6511Z" fill="white"/>
<path d="M9.64382 9.59483C10.2864 9.59483 10.7857 9.35313 11.1399 8.87027C11.409 8.51608 11.5379 7.95805 11.5379 7.20578V4.72728C11.5379 3.97062 11.4093 3.41752 11.1399 3.06004C10.7857 2.57581 10.2866 2.33411 9.64382 2.33411C9.00458 2.33411 8.50553 2.57581 8.15052 3.06004C7.87809 3.41752 7.74915 3.97062 7.74915 4.72728V7.20578C7.74915 7.95805 7.87809 8.51608 8.15052 8.87027C8.50526 9.35313 9.00458 9.59483 9.64382 9.59483ZM9.03174 4.47021C9.03174 3.81533 9.23037 3.48885 9.64382 3.48885C10.0573 3.48885 10.2554 3.81506 10.2554 4.47021V7.44748C10.2554 8.10236 10.0573 8.42993 9.64382 8.42993C9.23037 8.42993 9.03174 8.10236 9.03174 7.44748V4.47021Z" fill="white"/>
</svg>
